<?xml version="1.0" standalone="no"?>
<!DOCTYPE svg PUBLIC "-//W3C//DTD SVG 20010904//EN"
 "http://www.w3.org/TR/2001/REC-SVG-20010904/DTD/svg10.dtd">
<svg version="1.0" xmlns="http://www.w3.org/2000/svg"
 width="1408.000000pt" height="768.000000pt" viewBox="0 0 1408.000000 768.000000"
 preserveAspectRatio="xMidYMid meet">

<g transform="translate(0.000000,768.000000) scale(0.100000,-0.100000)"
fill="#000000" stroke="none">
<path d="M2063 5266 c3 -8 24 -67 47 -131 23 -65 79 -221 126 -348 46 -127 81
-233 78 -236 -3 -3 -172 -6 -375 -6 -203 0 -368 -3 -367 -6 2 -4 68 -108 147
-233 l145 -226 343 0 c189 0 343 -3 343 -7 0 -5 -13 -48 -29 -98 -69 -212
-418 -1275 -472 -1439 -32 -99 -58 -181 -56 -182 1 -1 164 95 362 215 198 120
462 280 587 355 l228 137 54 102 c174 329 313 597 309 597 -2 0 -161 -95 -353
-210 -193 -116 -356 -213 -364 -216 -9 -3 30 128 108 368 l122 373 197 3 c108
1 197 5 197 8 0 3 -55 120 -121 260 l-122 253 -256 154 c-141 85 -395 238
-565 341 -169 102 -310 186 -313 186 -3 0 -3 -6 0 -14z"/>
<path d="M3464 5045 c-11 -27 15 -42 84 -48 87 -7 165 -37 258 -99 146 -98
241 -259 261 -443 8 -66 9 -70 33 -70 25 0 25 1 22 70 -3 83 -32 187 -75 270
-48 92 -184 222 -277 268 -123 59 -292 88 -306 52z"/>
<path d="M3464 4806 c-10 -26 13 -43 65 -48 103 -10 217 -91 267 -190 13 -25
29 -78 35 -117 11 -66 14 -71 37 -71 24 0 25 1 20 73 -12 184 -174 350 -355
365 -52 4 -64 2 -69 -12z"/>
<path d="M3373 4474 c8 -16 57 -119 110 -229 52 -110 120 -250 150 -312 l55
-112 -70 -133 c-127 -239 -268 -512 -265 -513 4 -3 1107 660 1107 665 0 4
-241 149 -1062 639 l-40 23 15 -28z"/>
<path d="M6845 4294 c-11 -2 -45 -9 -75 -15 -152 -31 -280 -142 -332 -287 -27
-76 -29 -214 -5 -294 38 -127 147 -236 284 -288 73 -27 207 -37 285 -21 76 16
170 64 221 113 l42 40 -70 63 -69 64 -41 -38 c-60 -55 -119 -75 -207 -69 -82
5 -122 22 -174 75 -55 55 -78 114 -78 203 -1 91 24 149 89 209 46 42 121 71
186 71 58 0 136 -30 183 -71 l42 -37 70 63 69 63 -24 26 c-38 41 -115 86 -179
106 -60 19 -181 32 -217 24z"/>
<path d="M8620 4283 c-54 -9 -120 -35 -159 -63 -102 -74 -119 -231 -34 -316
43 -44 98 -68 227 -101 201 -50 254 -84 263 -165 6 -58 -21 -106 -78 -138 -59
-33 -189 -40 -275 -15 -61 18 -134 55 -154 80 -18 22 -24 19 -44 -22 -18 -37
-18 -38 5 -56 90 -73 190 -101 338 -95 122 5 182 26 244 86 46 45 72 122 62
185 -19 113 -84 161 -286 212 -207 53 -259 87 -259 169 0 58 33 105 95 136 42
21 64 25 141 24 89 0 128 -12 235 -71 3 -2 13 15 22 37 l16 40 -51 26 c-84 43
-215 63 -308 47z"/>
<path d="M10188 4275 c-133 -34 -236 -113 -292 -226 -131 -261 -8 -557 267
-641 90 -27 244 -22 329 11 109 42 206 139 249 248 31 77 34 250 6 330 -41
117 -147 220 -272 264 -77 27 -209 34 -287 14z m259 -97 c81 -30 171 -121 202
-203 61 -163 6 -347 -132 -442 -66 -45 -117 -58 -217 -58 -70 1 -95 5 -142 27
-79 37 -142 98 -181 177 -29 60 -32 73 -32 161 0 81 4 103 26 150 45 96 116
160 217 196 60 21 192 18 259 -8z"/>
<path d="M4740 4195 l0 -85 140 0 140 0 0 -360 0 -361 103 3 102 3 3 358 2
357 140 0 140 0 0 85 0 85 -385 0 -385 0 0 -85z"/>
<path d="M5620 3835 l0 -445 345 0 345 0 0 85 0 85 -240 0 -240 0 0 100 0 100
178 1 c97 1 188 2 202 2 24 2 25 4 28 85 l3 82 -206 0 -205 0 0 90 0 90 230 0
230 0 0 85 0 85 -335 0 -335 0 0 -445z"/>
<path d="M7390 3835 l0 -446 102 3 102 3 0 180 1 180 198 3 197 2 0 -185 0
-185 100 0 100 0 0 445 0 445 -100 0 -100 0 0 -170 0 -170 -200 0 -200 0 0
170 0 170 -100 0 -100 0 0 -445z"/>
<path d="M9076 4249 c-3 -17 -6 -35 -6 -40 0 -5 70 -9 155 -9 l155 0 0 -406 0
-405 48 3 47 3 3 403 2 402 155 0 155 0 0 40 0 40 -354 0 -353 0 -7 -31z"/>
<path d="M10970 3836 l0 -446 45 0 45 0 0 145 0 145 145 2 c80 0 150 1 157 2
7 1 57 -64 113 -144 l100 -145 54 -3 c44 -3 53 0 48 11 -3 8 -51 79 -107 157
-56 78 -100 143 -98 145 2 1 21 12 43 23 53 26 119 98 136 148 20 58 16 170
-9 226 -27 62 -92 122 -160 150 -52 20 -77 22 -284 26 l-228 4 0 -446z m486
329 c43 -22 65 -41 81 -70 64 -115 24 -248 -91 -301 -46 -21 -68 -24 -216 -26
l-165 -3 -3 205 c-1 112 0 211 3 218 4 11 36 13 168 11 159 -4 165 -5 223 -34z"/>
<path d="M11880 3835 l0 -445 315 0 315 0 0 45 0 45 -265 0 -265 0 0 165 0
165 225 0 225 0 0 40 0 40 -225 0 -225 0 0 155 0 155 255 0 255 0 0 40 0 40
-305 0 -305 0 0 -445z"/>
</g>
</svg>
